# xmcd CD database file
# Copyright (C) 1993-1996 Ti Kan
#
# Track frame offsets:
#	183
#	10695
#	27908
#	54140
#	73518
#	91075
#	109520
#	130505
#	151448
#	167953
#	192608
#	209345
#	230208
#	244338
#
# Disc length: 3469 seconds
#
# Revision: 1
# Processed by: cddbd v1.4b41PL1 Copyright (c) Steve Scherf et al.
# Submitted via: xmcd 2.0
#
DISCID=b60d8b0e
DTITLE=Mike Bloomfield /Rx for the Blues
DYEAR=1900
DGENRE=
TTITLE0=Rx for the Blues
TTITLE1=Wings of an Angel
TTITLE2=Knockin' Myself Out
TTITLE3=Walkin' the Floor
TTITLE4=Hully Gully
TTITLE5=Don't you Lie to Me
TTITLE6=Junko Partner
TTITLE7=Woman Lovin' eachother
TTITLE8=Cherry Red
TTITLE9=You Must Have Jesus
TTITLE10=Spotlight
TTITLE11=I Was Robbed Last Night
TTITLE12=I Found Out
TTITLE13=Never Be Lonely Again
EXTD=
EXTT0=
EXTT1=
EXTT2=
EXTT3=
EXTT4=
EXTT5=
EXTT6=
EXTT7=
EXTT8=
EXTT9=
EXTT10=
EXTT11=
EXTT12=
EXTT13=
PLAYORDER=
